<svg width="24" height="24" viewBox="0 0 24 24" fill="none" xmlns="http://www.w3.org/2000/svg">
<path opacity="0.2" d="M7.8 2.3999H15.822C16.0716 2.39979 16.3184 2.45158 16.5469 2.55198C16.7754 2.65238 16.9805 2.7992 17.1492 2.9831L22.326 8.6255C22.6307 8.95747 22.7999 9.39167 22.8 9.8423V22.1999C22.8 22.6773 22.6104 23.1351 22.2728 23.4727C21.9352 23.8103 21.4774 23.9999 21 23.9999H7.8C7.32261 23.9999 6.86477 23.8103 6.52721 23.4727C6.18964 23.1351 6 22.6773 6 22.1999V4.1999C6 3.72251 6.18964 3.26468 6.52721 2.92711C6.86477 2.58954 7.32261 2.3999 7.8 2.3999Z" fill="#181A25"/>
<path d="M7.79995 14.4C7.64082 14.4 7.48821 14.3367 7.37569 14.2242C7.26317 14.1117 7.19995 13.9591 7.19995 13.8C7.19995 13.6408 7.26317 13.4882 7.37569 13.3757C7.48821 13.2632 7.64082 13.2 7.79995 13.2H16.2C16.3591 13.2 16.5117 13.2632 16.6242 13.3757C16.7367 13.4882 16.8 13.6408 16.8 13.8C16.8 13.9591 16.7367 14.1117 16.6242 14.2242C16.5117 14.3367 16.3591 14.4 16.2 14.4H7.79995ZM7.79995 18C7.64082 18 7.48821 17.9367 7.37569 17.8242C7.26317 17.7117 7.19995 17.5591 7.19995 17.4C7.19995 17.2408 7.26317 17.0882 7.37569 16.9757C7.48821 16.8632 7.64082 16.8 7.79995 16.8H16.2C16.3591 16.8 16.5117 16.8632 16.6242 16.9757C16.7367 17.0882 16.8 17.2408 16.8 17.4C16.8 17.5591 16.7367 17.7117 16.6242 17.8242C16.5117 17.9367 16.3591 18 16.2 18H7.79995Z" fill="#181A25"/>
<path fill-rule="evenodd" clip-rule="evenodd" d="M13.422 1.19995H5.39998C4.92259 1.19995 4.46475 1.38959 4.12718 1.72716C3.78962 2.06472 3.59998 2.52256 3.59998 2.99995V21C3.59998 21.4773 3.78962 21.9352 4.12718 22.2727C4.46475 22.6103 4.92259 22.8 5.39998 22.8H18.6C19.0774 22.8 19.5352 22.6103 19.8728 22.2727C20.2103 21.9352 20.4 21.4773 20.4 21V8.64235C20.3999 8.19172 20.2307 7.75752 19.926 7.42555L14.7492 1.78315C14.5805 1.59925 14.3754 1.45243 14.1469 1.35203C13.9184 1.25163 13.6715 1.19984 13.422 1.19995ZM4.79998 2.99995C4.79998 2.84082 4.86319 2.68821 4.97571 2.57569C5.08823 2.46317 5.24085 2.39995 5.39998 2.39995H13.422C13.5052 2.39986 13.5876 2.4171 13.6638 2.45056C13.7401 2.48403 13.8085 2.533 13.8648 2.59435L19.0416 8.23675C19.1433 8.34735 19.1998 8.49209 19.2 8.64235V21C19.2 21.1591 19.1368 21.3117 19.0242 21.4242C18.9117 21.5367 18.7591 21.6 18.6 21.6H5.39998C5.24085 21.6 5.08823 21.5367 4.97571 21.4242C4.86319 21.3117 4.79998 21.1591 4.79998 21V2.99995Z" fill="#181A25"/>
<path d="M13.2 8.39995H19.8C19.9591 8.39995 20.1117 8.46316 20.2243 8.57569C20.3368 8.68821 20.4 8.84082 20.4 8.99995C20.4 9.15908 20.3368 9.31169 20.2243 9.42421C20.1117 9.53674 19.9591 9.59995 19.8 9.59995H12.6C12.4409 9.59995 12.2883 9.53674 12.1757 9.42421C12.0632 9.31169 12 9.15908 12 8.99995V1.79995C12 1.64082 12.0632 1.48821 12.1757 1.37569C12.2883 1.26317 12.4409 1.19995 12.6 1.19995C12.7591 1.19995 12.9117 1.26317 13.0243 1.37569C13.1368 1.48821 13.2 1.64082 13.2 1.79995V8.39995Z" fill="#181A25"/>
</svg>
