<svg width="203" height="44" viewBox="0 0 203 44" fill="none" xmlns="http://www.w3.org/2000/svg">
<g clip-path="url(#clip0_438_3267)">
<path fill-rule="evenodd" clip-rule="evenodd" d="M101.535 0.85005C104.513 0.813705 107.489 0.85008 110.465 0.959145C106.71 2.65708 103.37 4.94799 100.446 7.83188C97.702 5.14752 94.58 3.00206 91.0793 1.39551C94.5992 1.21334 98.0843 1.03152 101.535 0.85005Z" fill="#DB3E36"/>
<path fill-rule="evenodd" clip-rule="evenodd" d="M89.3369 5.6501C89.9944 5.61419 90.6478 5.65054 91.2973 5.7592C91.5877 5.97737 91.5877 6.19555 91.2973 6.41374C78.2296 9.91802 67.0117 16.4998 57.6439 26.1592C54.9211 28.9667 53.3294 32.2604 52.8518 34.0138C52.3741 35.7671 52.8458 37.1852 54.2677 38.2682C55.2751 38.9444 56.147 39.4723 57.535 39.7955C62.2181 40.8865 66.7166 40.1018 71.2577 39.1411C80.6741 36.8237 89.387 32.9693 97.3963 27.5774C98.0281 27.0544 98.921 26.3956 98.921 25.7228C98.921 25.2865 98.5943 24.7897 98.0498 24.7411C94.5646 24.4291 91.0562 24.136 87.5944 23.8682C91.8643 23.3671 96.148 23.2219 100.446 23.4319C102.624 23.5384 103.026 24.839 102.079 26.5955C101.685 27.2021 101.213 27.7475 100.664 28.2319C90.2359 36.4703 78.4007 41.4158 65.1587 43.0682C60.3002 43.7431 53.6816 42.8501 51.436 40.6682C48.9947 38.2967 48.3778 35.4967 49.5844 32.2682C51.4957 28.192 54.2183 24.7375 57.7528 21.9047C67.1416 14.2933 77.6695 8.87509 89.3369 5.6501Z" fill="#DB3E36"/>
<path fill-rule="evenodd" clip-rule="evenodd" d="M22.2474 12.4136C22.2474 13.5772 22.2474 14.959 22.2474 16.1227C16.9107 16.1227 11.0297 16.1227 5.69301 16.1227C5.69301 17.8681 5.69301 19.5045 5.69301 21.1408C9.83757 21.0793 13.9703 21.1408 18.1088 21.1408C18.1088 22.2318 18.1088 23.9772 18.1088 25.0681C14.0322 25.1061 10.0494 25.0681 5.91083 25.0681C5.91083 27.0318 5.91083 28.9954 5.91083 30.9591C10.7029 30.9591 17.1287 31.0681 22.2474 31.0681C22.2474 32.5954 22.2474 33.7954 22.2474 34.7772C16.2573 34.8255 10.2673 34.7772 4.16826 34.7772C3.14015 34.729 1.88112 34.7772 0.683118 34.7772C0.683163 27.6862 0.683073 19.8318 0.683118 12.4136C7.58081 12.4136 15.3497 12.4136 22.2474 12.4136Z" fill="#181A25"/>
<path fill-rule="evenodd" clip-rule="evenodd" d="M50.3464 12.5228C50.3464 8.37732 50.3462 20.7045 50.3462 24.8499C50.3822 25.5084 50.3462 25.941 50.3462 26.5956C49.3351 29.0509 48.2822 32.3961 47.4058 34.8862C46.6433 34.8862 45.6631 34.8862 45.0097 34.8862C44.3563 34.2316 43.7465 33.2577 43.0492 32.4862C39.6367 28.4863 35.7886 24.0498 32.3759 20.0499C32.3759 20.8135 32.3759 21.795 32.3759 22.4499C32.3759 26.268 32.4848 31.2862 32.4848 34.8862C31.3958 34.8862 28.673 34.8862 27.5839 34.8862C27.5476 27.904 27.475 19.504 27.5839 12.5226C27.5839 12.5226 27.9107 12.5226 28.3463 12.5226C29.7622 12.5226 31.2869 12.5226 32.7028 12.5226C36.7231 17.4955 40.8253 22.4044 45.0097 27.2499C45.0097 22.4499 45.0097 17.5408 45.0097 12.5226C46.3166 12.5226 50.3464 12.5228 50.3464 12.5228Z" fill="#181A25"/>
<mask id="mask0_438_3267" style="mask-type:luminance" maskUnits="userSpaceOnUse" x="97" y="6" width="106" height="29">
<path d="M203 6H97V35H203V6Z" fill="white"/>
</mask>
<g mask="url(#mask0_438_3267)">
<path d="M104.513 35V15.8366H97.6902V11.9347H115.962V15.8366H109.155V35H104.513ZM117.689 35V11.9347H134.738V15.8366H122.331V20.95H133.875V24.8362H122.331V31.1139H135.177V35H117.689ZM137.891 35V11.9347H142.534V22.1772L151.913 11.9347H158.155L149.498 20.9185L158.626 35H152.619L146.298 24.1753L142.534 28.03V35H137.891ZM159.882 35V12.1235H164.524V31.1139H176.068V35H159.882ZM177.967 35V11.9347H182.609V35H177.967ZM178.139 10.6131V6.42798H182.468V10.6131H178.139ZM185.795 35V11.9347H201.557V15.8366H190.437V21.2961H200.036V25.198H190.437V35H185.795Z" fill="#181A25"/>
</g>
</g>
<defs>
<clipPath id="clip0_438_3267">
<rect width="203" height="44" fill="white"/>
</clipPath>
</defs>
</svg>
