<svg width="20" height="20" viewBox="0 0 20 20" fill="none" xmlns="http://www.w3.org/2000/svg">
<path opacity="0.2" d="M2.86847 15.607C2.681 15.4195 2.57568 15.1652 2.57568 14.9C2.57568 14.6348 2.681 14.3805 2.86847 14.193L3.57547 13.486L4.28247 12.779L4.99047 12.072L5.69747 11.365L6.40447 10.657L7.11147 9.94999L7.81847 9.24299L8.52547 8.53599L9.23247 7.82899L9.93947 7.12199L10.6465 6.41499L11.3545 5.70799L12.0605 4.99999L12.7675 4.29199L13.4745 3.58499L14.1815 2.87799C14.369 2.69052 14.6233 2.58521 14.8885 2.58521C15.1536 2.58521 15.4079 2.69052 15.5955 2.87799L19.1315 6.41399C19.3189 6.60152 19.4243 6.85583 19.4243 7.12099C19.4243 7.38616 19.3189 7.64046 19.1315 7.82799L7.81847 19.143C7.63094 19.3305 7.37663 19.4358 7.11147 19.4358C6.84631 19.4358 6.592 19.3305 6.40447 19.143L2.86847 15.607Z" fill="#181A25"/>
<path fill-rule="evenodd" clip-rule="evenodd" d="M2.31023 13.626C2.26367 13.6724 2.22672 13.7276 2.20152 13.7884C2.17631 13.8491 2.16334 13.9142 2.16334 13.98C2.16334 14.0458 2.17631 14.1109 2.20152 14.1716C2.22672 14.2324 2.26367 14.2876 2.31023 14.334L5.84623 17.869C5.93999 17.9627 6.06715 18.0154 6.19973 18.0154C6.33231 18.0154 6.45947 17.9627 6.55323 17.869L17.8672 6.555C17.961 6.46124 18.0136 6.33408 18.0136 6.2015C18.0136 6.06892 17.961 5.94176 17.8672 5.848L14.3312 2.313C14.2375 2.21927 14.1103 2.16661 13.9777 2.16661C13.8451 2.16661 13.718 2.21927 13.6242 2.313L12.5642 3.373L14.2732 5.083C14.3209 5.12919 14.3589 5.18442 14.385 5.24546C14.4112 5.30649 14.4249 5.37212 14.4253 5.43851C14.4258 5.5049 14.4131 5.57072 14.3878 5.63213C14.3626 5.69354 14.3254 5.74931 14.2784 5.79619C14.2314 5.84306 14.1755 5.88011 14.114 5.90516C14.0525 5.93022 13.9867 5.94278 13.9203 5.94211C13.8539 5.94144 13.7883 5.92756 13.7274 5.90127C13.6664 5.87498 13.6113 5.83682 13.5652 5.789L11.8572 4.08L10.4422 5.495L11.3262 6.379C11.4173 6.4733 11.4677 6.5996 11.4666 6.7307C11.4654 6.8618 11.4128 6.98721 11.3201 7.07991C11.2274 7.17261 11.102 7.2252 10.9709 7.22634C10.8398 7.22748 10.7135 7.17708 10.6192 7.086L9.73523 6.202L8.32123 7.616L10.0302 9.325C10.078 9.37112 10.1161 9.4263 10.1423 9.4873C10.1685 9.5483 10.1823 9.61391 10.1829 9.6803C10.1834 9.74669 10.1708 9.81253 10.1456 9.87398C10.1205 9.93543 10.0834 9.99125 10.0364 10.0382C9.98948 10.0851 9.93366 10.1223 9.87221 10.1474C9.81076 10.1726 9.74492 10.1852 9.67853 10.1846C9.61214 10.184 9.54653 10.1703 9.48553 10.1441C9.42453 10.1178 9.36935 10.0798 9.32323 10.032L7.61423 8.323L6.20023 9.737L7.08423 10.621C7.13199 10.6671 7.17008 10.7223 7.19628 10.7833C7.22249 10.8443 7.23628 10.9099 7.23686 10.9763C7.23743 11.0427 7.22478 11.1085 7.19964 11.17C7.1745 11.2314 7.13737 11.2873 7.09043 11.3342C7.04348 11.3811 6.98766 11.4183 6.92621 11.4434C6.86476 11.4686 6.79892 11.4812 6.73253 11.4806C6.66614 11.48 6.60053 11.4663 6.53953 11.4401C6.47853 11.4138 6.42335 11.3758 6.37723 11.328L5.49323 10.444L4.07823 11.859L5.78823 13.568C5.83465 13.6145 5.87146 13.6697 5.89656 13.7304C5.92166 13.7911 5.93455 13.8562 5.93451 13.9219C5.93446 13.9876 5.92148 14.0526 5.89629 14.1133C5.87111 14.174 5.83422 14.2291 5.78773 14.2755C5.74124 14.3219 5.68607 14.3587 5.62535 14.3838C5.56464 14.4089 5.49957 14.4218 5.43388 14.4218C5.36818 14.4217 5.30313 14.4087 5.24246 14.3836C5.18178 14.3584 5.12665 14.3215 5.08023 14.275L3.37123 12.565L2.31023 13.626ZM1.60423 15.041C1.46484 14.9017 1.35427 14.7363 1.27882 14.5542C1.20338 14.3722 1.16455 14.1771 1.16455 13.98C1.16455 13.7829 1.20338 13.5878 1.27882 13.4058C1.35427 13.2237 1.46484 13.0583 1.60423 12.919L12.9172 1.606C13.0565 1.46661 13.2219 1.35604 13.404 1.28059C13.586 1.20515 13.7812 1.16632 13.9782 1.16632C14.1753 1.16632 14.3704 1.20515 14.5525 1.28059C14.7345 1.35604 14.8999 1.46661 15.0392 1.606L18.5742 5.141C18.8554 5.42229 19.0134 5.80375 19.0134 6.2015C19.0134 6.59925 18.8554 6.98071 18.5742 7.262L7.26023 18.576C6.97898 18.8569 6.59773 19.0147 6.20023 19.0147C5.80273 19.0147 5.42148 18.8569 5.14023 18.576L1.60423 15.041Z" fill="#181A25"/>
</svg>
