<svg width="14" height="14" viewBox="0 0 14 14" fill="none" xmlns="http://www.w3.org/2000/svg">
<g clip-path="url(#clip0_29_90)">
<path d="M13.5 6.071V6.536C13.5 7.38959 13.3319 8.23483 13.0052 9.02344C12.6786 9.81206 12.1998 10.5286 11.5962 11.1322C10.9926 11.7358 10.2761 12.2146 9.48744 12.5412C8.69883 12.8679 7.85359 13.036 7 13.036H6.536C4.93515 13.036 3.39987 12.4001 2.2679 11.2681C1.13593 10.1361 0.5 8.60085 0.5 7V6.34C0.5 4.9142 1.0664 3.54679 2.07459 2.53859C3.08279 1.5304 4.4502 0.964001 5.876 0.964001C7.15913 0.964531 8.38954 1.47455 9.29675 2.38196C10.204 3.28936 10.7137 4.51987 10.714 5.803V6.25C10.714 7.31087 10.2926 8.32828 9.54243 9.07843C8.79228 9.82857 7.77487 10.25 6.714 10.25H6.536C5.67405 10.25 4.8474 9.90759 4.2379 9.2981C3.62841 8.6886 3.286 7.86195 3.286 7V6.536C3.286 5.79745 3.57925 5.08913 4.10129 4.56671C4.62334 4.04429 5.33145 3.75053 6.07 3.75C7.096 3.75 7.928 4.581 7.928 5.607V5.872C7.928 6.752 7.215 7.464 6.336 7.464H6.07" stroke="#181A25" stroke-linecap="round" stroke-linejoin="round"/>
</g>
<defs>
<clipPath id="clip0_29_90">
<rect width="14" height="14" fill="white"/>
</clipPath>
</defs>
</svg>
